<?xml version="1.0" encoding="UTF-8"?>
<svg xmlns="http://www.w3.org/2000/svg" xmlns:xlink="http://www.w3.org/1999/xlink" viewBox="0 0 24.04 25">
  <defs>
    <style>
      .cls-1, .cls-2 {
        fill: #fff;
      }

      .cls-3 {
        mask: url(#mask);
      }

      .cls-4 {
        filter: url(#luminosity-invert-noclip);
      }

      .cls-5, .cls-6 {
        fill: #7c0300;
      }

      .cls-6 {
        stroke: #7c0300;
      }

      .cls-6, .cls-2 {
        font-family: ArialRoundedMTBold, 'Arial Rounded MT Bold';
        font-size: 22.33px;
        stroke-miterlimit: 10;
      }

      .cls-2 {
        stroke: #fff;
      }
    </style>
    <filter id="luminosity-invert-noclip" x="0" y="0" width="24.04" height="25" color-interpolation-filters="sRGB" filterUnits="userSpaceOnUse">
      <feColorMatrix result="cm" values="-1 0 0 0 1 0 -1 0 0 1 0 0 -1 0 1 0 0 0 1 0"/>
      <feFlood flood-color="#fff" result="bg"/>
      <feBlend in="cm" in2="bg"/>
    </filter>
    <mask id="mask" x="0" y="0" width="24.04" height="25" maskUnits="userSpaceOnUse">
      <g class="cls-4">
        <text class="cls-2" transform="translate(.5 19.79) scale(.9 1)"><tspan x="0" y="0">AI</tspan></text>
      </g>
    </mask>
  </defs>
  <g id="Layer_2">
    <text class="cls-6" transform="translate(.5 19.79) scale(.9 1)"><tspan x="0" y="0">AI</tspan></text>
    <path class="cls-1" d="M22.1,3.3c-1.26-1.27-2.92-1.96-4.7-1.96s-3.44.7-4.7,1.97h0c-.36.37-.95.37-1.31,0h-.01c-1.26-1.28-2.93-1.98-4.71-1.98s-3.44.7-4.69,1.96C.73,4.55.04,6.24.04,8.03c0,1.79.7,3.47,1.95,4.74l9.56,9.64c.13.13.31.21.48.21s.35-.07.48-.2l9.58-9.63c1.26-1.27,1.95-2.95,1.95-4.75,0-1.79-.68-3.48-1.94-4.75Z"/>
  </g>
  <g id="Layer_1">
    <g class="cls-3">
      <path class="cls-5" d="M22.1,3.3c-1.26-1.27-2.92-1.96-4.7-1.96s-3.44.7-4.7,1.97h0c-.36.37-.95.37-1.31,0h-.01c-1.26-1.28-2.93-1.98-4.71-1.98s-3.44.7-4.69,1.96C.73,4.55.04,6.24.04,8.03c0,1.79.7,3.47,1.95,4.74l9.56,9.64c.13.13.31.21.48.21s.35-.07.48-.2l9.58-9.63c1.26-1.27,1.95-2.95,1.95-4.75,0-1.79-.68-3.48-1.94-4.75Z"/>
    </g>
  </g>
</svg>