<?xml version="1.0" encoding="UTF-8"?>
<svg id="Layer_1" xmlns="http://www.w3.org/2000/svg" viewBox="0 0 24 24">
  <defs>
    <style>
      .cls-1 {
        fill: #7c0300;
      }
    </style>
  </defs>
  <path d="M19,11.5v6c0,.83-.67,1.5-1.5,1.5s-1.5-.67-1.5-1.5v-6c0-.83.67-1.5,1.5-1.5s1.5.67,1.5,1.5ZM22.5,10c-.83,0-1.5.67-1.5,1.5v8.21c0,.71-.58,1.29-1.29,1.29H4.29c-.71,0-1.29-.58-1.29-1.29V4.29c0-.71.58-1.29,1.29-1.29h8.21c.83,0,1.5-.67,1.5-1.5s-.67-1.5-1.5-1.5H4.29C1.92,0,0,1.92,0,4.29v15.41c0,2.37,1.92,4.29,4.29,4.29h15.41c2.37,0,4.29-1.92,4.29-4.29v-8.21c0-.83-.67-1.5-1.5-1.5ZM12.4,6.83l2.55,10.31c.2.8-.29,1.62-1.1,1.82-.12.03-.24.04-.36.04-.67,0-1.29-.46-1.45-1.14l-.21-.86h-3.32c-.2,0-.37.14-.42.33l-.27,1.08c-.02.1-.09.19-.18.24-1.58.98-2.91-.27-2.6-1.51l2.54-10.25c.34-1.14,1.3-1.86,2.42-1.86s2.08.72,2.4,1.79h0ZM11.39,13.53c.03-1.07-1.02-4.17-1.02-4.17-.1-.39-.66-.39-.75,0l-1.03,4.17s.12.48.38.48h2.18c.11,0,.24-.34.24-.47Z"/>
  <path class="cls-1" d="M22.79,1.63c-.43-.43-.99-.66-1.59-.66s-1.17.23-1.59.66h0c-.12.12-.32.12-.44,0h0c-.43-.43-.99-.66-1.59-.66s-1.16.23-1.59.66c-.43.43-.66.99-.66,1.59,0,.6.24,1.16.66,1.59l3.23,3.23s.11.07.16.07.12-.02.16-.07l3.24-3.23c.43-.43.66-.99.66-1.59,0-.6-.23-1.17-.66-1.59Z"/>
</svg>