<?xml version="1.0" encoding="UTF-8"?>
<svg xmlns="http://www.w3.org/2000/svg" viewBox="0 0 745.02 578.69">
  <defs>
    <style>
      .cls-1 {
        fill: #7c0300;
      }
    </style>
  </defs>
  <g id="Layer_1" image-rendering="optimizeQuality" shape-rendering="geometricPrecision" text-rendering="geometricPrecision">
    <g>
      <path d="M51.33,413.15c-25.17,0-46.35-17.9-50.69-42.69-.06-.24-.64-2.36-.64-2.36v-1.98s0-9.77,0-9.77l.51-2.6c.61-3.11,1.44-7.38,3.52-12.03,7.81-17.5,22.37-28.41,41.01-30.72,2.1-.26,4.23-.39,6.33-.39,17.74,0,33.63,8.88,42.87,23.3,29.24-.02,58.48-.02,87.72-.02h36.1c.48,0,25.04.17,25.04.17v55.02s-22.91.67-22.91.67c-.64.02-1.36.04-2.09.05h-123.97c-8.56,13.1-22.76,21.87-38.43,23.17-1.45.12-2.92.18-4.37.18h-.01Z"/>
      <path d="M51.33,398.15c-18.1,0-33.18-12.96-36.01-30.89-.01-.04-.31-1.13-.31-1.13v-8.31l.23-1.17c.52-2.67,1.11-5.7,2.49-8.8,5.66-12.69,15.75-20.28,29.16-21.95,1.49-.18,2.99-.28,4.48-.28,15.2,0,28.45,9.37,33.7,23.31,32.3-.02,64.6-.02,96.89-.02h36.1c.48,0,10.04.07,10.04.07v25.55l-8.35.24c-.56.02-1.12.04-1.67.04H85.07c-4.95,12.77-17,22.09-30.61,23.23-1.04.09-2.09.13-3.13.13ZM51.17,351.33c-5.69,0-10.5,4.86-10.5,10.6,0,2.79,1.08,5.41,3.05,7.36,1.98,1.97,4.64,3.05,7.5,3.05,5.78-.01,10.47-4.71,10.47-10.46,0-5.82-4.72-10.55-10.51-10.55v-8s0,8,0,8Z"/>
      <path d="M51.33,405.15c-21.45,0-39.33-15.25-42.86-36.41l-.46-1.69v-9.92l.36-1.84c.56-2.89,1.27-6.49,2.97-10.31,6.62-14.84,18.94-24.09,34.69-26.04,1.77-.22,3.57-.33,5.35-.33,16.46,0,31,9.19,38.24,23.31,30.75-.02,61.52-.02,92.27-.02h36.18c.5,0,2.13.01,2.13.01l14.9.1v39.31l-15.1.44c-.64.02-1.28.04-1.92.04H89.61c-6.73,13.02-19.68,21.96-34.57,23.2-1.23.1-2.48.15-3.71.16Z"/>
      <path d="M220.11,366.74c-.68.02-1.36.06-2.03.06-45.66,0-91.31,0-136.97,0-2.43,0-1.95-.14-2.48,1.95-2.95,11.61-13.1,20.32-24.83,21.3-15.21,1.27-28.43-9.27-30.64-24.41-.03-.2-.1-.38-.15-.58v-6.47c.5-2.54.96-5.1,2.03-7.49,4.44-9.95,11.99-15.92,22.84-17.27,14.33-1.78,27.55,7.56,30.81,21.56.29,1.23.8,1.54,2.01,1.54,45.79-.03,91.58-.03,137.37-.03.68,0,1.36,0,2.04.01,0,3.28,0,6.55,0,9.83ZM69.69,361.88c0-10.22-8.31-18.55-18.51-18.55-10.12,0-18.5,8.42-18.51,18.6,0,10.23,8.27,18.44,18.58,18.42,10.17-.02,18.44-8.3,18.44-18.46Z"/>
      <path d="M119.34,578.69l-1.72-.26c-4.37-.66-10.95-1.97-17.61-5.61-15.44-8.46-25.05-22.58-27.05-39.77-3.13-26.92,15.45-51.56,42.3-56.11,2.91-.49,5.86-.74,8.77-.74,10.67,0,20.85,3.39,29.27,9.29,1.71-8.22,3.42-16.44,5.13-24.66,4.07-19.62,21.5-34,41.45-34.18,2.55-.02,5.09-.03,7.64-.03,2.06,0,4.13,0,6.19,0h5.36c1.35,0,2.45.12,3.05.18l20.87,1.89.11,20.94v32.6s-30.99.09-32.15.1l-8.08,39.11c-3.61,17.46-18.18,31.04-35.75,33.53-7.53,12.06-19.52,20.12-34.61,23.06-.73.14-1.47.26-2.2.36l-2.02.3h-8.96Z"/>
      <path d="M120.47,563.69l-.6-.09c-3.52-.53-8.14-1.46-12.66-3.94-11.22-6.14-17.91-15.95-19.36-28.35-2.21-18.98,10.93-36.37,29.91-39.59,2.08-.35,4.19-.53,6.26-.53,15.22,0,28.63,9.52,33.86,23.58,1.14,0,1.98-.04,2.71-.13,1.48-.17,2.08-.72,2.38-2.18,3.39-16.2,6.77-32.4,10.13-48.6,2.65-12.76,13.96-22.11,26.91-22.23,2.5-.02,5-.03,7.5-.03,2.06,0,4.13,0,6.19,0h5.32c.67,0,1.23.07,1.59.11l7.43.67.04,7.31v17.57l-12.44.04c-4.46.01-8.92.03-13.38.05h-1.15c-.52,0-.69.01-.76.02-1.16.24-1.85.91-2.09,2.04l-10.12,48.98c-2.37,11.48-12.57,20.67-24.24,21.85-2.1.21-4.08.24-5.57.24-.24,0-.48,0-.72,0-4.78,12.31-14.38,20.16-28.01,22.82-.49.09-.98.17-1.47.24l-.98.15h-6.72ZM123.73,516.99c-5.05,0-10.29,3.93-10.32,10.51-.02,5.89,4.52,10.4,10.56,10.49h.14c5.47,0,10.18-4.77,10.29-10.42.05-2.67-1.07-5.39-3.09-7.44-1.99-2.02-4.56-3.14-7.25-3.14h-.33Z"/>
      <path d="M119.95,570.69l-1.12-.17c-3.77-.57-9.43-1.68-14.97-4.72-13.29-7.28-21.23-18.93-22.95-33.68-2.64-22.68,13.04-43.46,35.69-47.3,2.47-.42,4.97-.63,7.43-.63,13.73,0,26.21,6.48,34.19,16.88,2.69-12.87,5.37-25.75,8.04-38.62,3.31-15.96,17.48-27.66,33.7-27.81,2.52-.02,5.04-.03,7.57-.03,2.07,0,4.14,0,6.21,0h5.31c1.05,0,1.9.1,2.35.15h-.02s13.73,1.17,13.73,1.17v38.33l-19.43.06c-3.75.01-7.5.02-11.25.04l-9.39,45.47c-2.98,14.39-15.76,25.92-30.39,27.4-.84.08-1.66.14-2.44.19-6.16,12.04-16.96,20-31.23,22.78-.61.12-1.22.21-1.84.3l-1.43.21h-7.77ZM123.73,523.99s-3.31.04-3.32,3.54c0,2.01,1.5,3.43,3.66,3.46h0c1.73,0,3.29-1.69,3.33-3.55.02-.79-.4-1.71-1.08-2.4-.47-.48-1.24-1.04-2.26-1.04h-.33Z"/>
      <path d="M220.11,459.3c-5.95.02-11.9.03-17.85.06-1.15,0-2.31-.06-3.46.18-4.3.89-7.44,3.98-8.33,8.26-3.37,16.33-6.74,32.65-10.12,48.98-1.66,8.03-9.11,14.69-17.21,15.51-3.35.34-6.7.13-10.05.18-.94.01-1.36.24-1.63,1.24-3.24,12.1-11.05,19.35-23.35,21.75-.51.1-1.02.16-1.53.24-1.84,0-3.68,0-5.52,0-3.49-.53-6.9-1.34-10.02-3.05-8.84-4.84-14.08-12.18-15.25-22.26-1.65-14.18,8.17-28.21,23.3-30.78,15.49-2.63,28.82,7.42,32.23,20.97.11.43.21.85.29,1.28.11.6.42.91,1.06.89,2.95-.09,5.91.18,8.86-.16,4.89-.57,8.27-3.65,9.28-8.49,3.39-16.2,6.77-32.41,10.13-48.61,1.86-8.98,9.99-15.77,19.15-15.86,6.31-.06,12.62-.01,18.93-.01.36,0,.71.06,1.07.09,0,3.2,0,6.39,0,9.59ZM123.96,508.99c-9.31-.12-18.5,7.14-18.54,18.48-.04,10.27,8.08,18.37,18.44,18.52,10.09.15,18.36-8.24,18.55-18.27.18-9.83-8.07-18.78-18.44-18.72Z"/>
      <path d="M207.66,297.22c-2.43,0-4.86-.01-7.29-.05-20.97-.3-38.36-15.2-42.29-36.23-1.4-7.51-2.98-15.18-4.55-22.72-5.71,3.97-12.36,6.79-19.79,8.32-3.32.68-6.71,1.03-10.09,1.03-23.5,0-44.41-16.79-49.74-39.93-3.15-13.69-.43-28.27,7.45-39.99,7.9-11.74,20.39-19.77,34.29-22.01.8-.13,1.59-.24,2.39-.35l2.38-.34h7.09l1.92.27c2.86.41,6.78.97,11.12,2.53,11.56,4.15,20.64,11.36,26.7,21.1,17.83,2.65,32.15,15.97,35.89,34.19,1.48,7.22,5.92,28.87,7.86,38.31h9.12s23,.03,23,.03v55.78h-22.99c-1.87.01-3.73.02-5.6.03h-.34c-2.17.01-4.35.02-6.53.02Z"/>
      <path d="M207.66,282.22c-2.36,0-4.72-.01-7.08-.04-13.74-.2-25.16-10.06-27.76-23.99-1.76-9.42-3.77-19.01-5.71-28.27-.83-3.97-1.66-7.95-2.48-11.92l-.37-1.85c-.36-1.82-.71-3.54-1.12-5.21-.25-1.02-1.28-1.8-2.38-1.81h-1.26s-1.76,0-1.76,0c-4.62,12.2-13.88,20.02-27.04,22.73-2.33.48-4.71.72-7.07.72-16.57,0-31.34-11.9-35.12-28.29-2.22-9.66-.3-19.96,5.28-28.26,5.59-8.31,14.42-13.99,24.24-15.58.68-.11,1.36-.2,2.04-.3l1.39-.2h4.97l.86.12c2.47.35,5.27.75,8.17,1.79,10.76,3.87,18.38,11.25,22.29,21.5h2.9c13.62.01,25.04,9.34,27.78,22.69,1.91,9.33,8.78,42.79,8.78,42.79.36,1.77.72,3.54,1.08,5.31.16.79.68,2.12,2.39,2.14,3.39.05,6.77.06,9.33.06h10.11s7.99,0,7.99,0v25.81h-8c-2,0-3.99.01-5.99.02-2.15,0-4.31.02-6.46.02ZM123.93,185.85c-5.16,0-10.51,3.93-10.52,10.51-.02,6.51,5.32,10.45,10.49,10.5h.1c5.7,0,10.35-4.64,10.37-10.35v-.26c.09-2.49-.93-5.07-2.8-7.06-1.96-2.08-4.57-3.27-7.35-3.34h-.28Z"/>
      <path d="M207.66,289.22c-2.39,0-4.79-.01-7.18-.04-17.12-.24-31.32-12.46-34.54-29.7-1.75-9.35-3.74-18.89-5.68-28.13-.62-2.96-1.24-5.92-1.85-8.89-6.18,8.35-15.14,13.96-26.29,16.25-2.79.57-5.64.87-8.48.87-19.8,0-37.44-14.18-41.94-33.72-2.66-11.54-.36-23.84,6.3-33.73,6.67-9.91,17.21-16.69,28.93-18.58.73-.12,1.47-.22,2.2-.32l1.85-.26h5.97l1.35.19c2.66.38,5.98.85,9.55,2.14,11.18,4.02,19.5,11.23,24.5,21.13,16.23.74,29.66,12.15,32.95,28.24,1.91,9.34,3.83,18.68,5.75,28.02,0,0,3.29,16.03,3.42,16.66,2.04.01,3.96.02,5.56.02h10.12s14.98.02,14.98.02v39.8h-14.99c-1.99,0-3.97.02-5.96.03-2.17,0-4.33.02-6.5.02ZM123.93,192.85s-3.51.04-3.52,3.53c0,2.53,2.12,3.47,3.55,3.48h0c1.85,0,3.39-1.54,3.4-3.37v-.24s0-.24,0-.24c.02-.62-.33-1.4-.91-2.02-.47-.5-1.28-1.11-2.43-1.14h-.1Z"/>
      <path d="M125.87,167.96c2.33.33,4.66.64,6.89,1.44,9.94,3.57,16.19,10.5,18.74,20.73.25,1,.64,1.28,1.6,1.26,2.52-.05,5.03-.02,7.55-.02,9.77,0,17.98,6.72,19.94,16.29,2.92,14.27,5.85,28.53,8.78,42.79.36,1.76.72,3.52,1.07,5.28,1.01,5,5.02,8.49,10.12,8.56,6.51.09,13.03.04,19.54.05v9.83c-6.47,0-12.94.08-19.41,0-9.72-.14-18.06-7.03-20.01-17.46-2.52-13.49-5.45-26.89-8.21-40.33-.51-2.46-.96-4.94-1.57-7.37-1.14-4.6-5.35-7.85-10.09-7.88-2.6-.02-5.19.03-7.79-.02-.93-.02-1.27.3-1.51,1.23-3.05,11.78-10.51,19.23-22.42,21.68-14.78,3.05-29.36-6.7-32.77-21.53-3.63-15.78,7-31.55,23-34.14.9-.15,1.81-.26,2.72-.39h3.84ZM142.36,196.54c.34-9.53-7.59-18.41-17.94-18.68-9.85-.26-18.98,7.3-19.01,18.48-.03,10.63,8.52,18.43,18.41,18.53,10.18.1,18.51-8.2,18.55-18.33Z"/>
    </g>
    <path class="cls-1" d="M259.52,490.33c0,50,8,77,31.27,61,0,0,180.02-173.24,180.02-173.24,25.78-25.78,39.98-60.03,39.98-96.46,3.25-118.81-150.79-182.4-232.59-96.35-7.5,7.52-22.47,57.43-22.41,68.05"/>
  </g>
</svg>