<?xml version="1.0" encoding="UTF-8"?>
<svg xmlns="http://www.w3.org/2000/svg" viewBox="0 0 24 24">
  <defs>
    <style>
      .cls-1 {
        fill: #7c0300;
      }
    </style>
  </defs>
  <g id="Layer_1">
    <path d="M17.5,16c-.83,0-1.5-.67-1.5-1.5V6.5c0-.83.67-1.5,1.5-1.5s1.5.67,1.5,1.5v8c0,.83-.67,1.5-1.5,1.5ZM24,14.5V4.29c0-2.37-1.92-4.29-4.29-4.29H4.29C1.92,0,0,1.92,0,4.29v15.41c0,2.37,1.92,4.29,4.29,4.29h10.21c.83,0,1.5-.67,1.5-1.5s-.67-1.5-1.5-1.5H4.29c-.71,0-1.29-.58-1.29-1.29V4.29c0-.71.58-1.29,1.29-1.29h15.41c.71,0,1.29.58,1.29,1.29v10.21c0,.83.67,1.5,1.5,1.5s1.5-.67,1.5-1.5Z"/>
    <path class="cls-1" d="M23.34,17.52c-.43-.43-.99-.66-1.59-.66s-1.17.23-1.59.66h0c-.12.12-.32.12-.44,0h0c-.43-.43-.99-.66-1.59-.66s-1.16.23-1.59.66c-.43.43-.66.99-.66,1.59,0,.6.24,1.16.66,1.59l3.23,3.23s.11.07.16.07.12-.02.16-.07l3.24-3.23c.43-.43.66-.99.66-1.59,0-.6-.23-1.17-.66-1.59Z"/>
  </g>
  <g id="Layer_2">
    <path d="M7.82,18.4c-.02.1-.09.19-.18.24-1.58.98-2.91-.27-2.6-1.51l2.54-10.25c.34-1.14,1.3-1.86,2.42-1.86s2.08.72,2.4,1.79h0s2.55,10.31,2.55,10.31c.2.8-.29,1.62-1.1,1.82-.12.03-.24.04-.36.04-.67,0-1.29-.46-1.45-1.14l-.21-.86h-3.32M10.38,9.35c-.1-.39-.66-.39-.75,0l-1.03,4.17s.12.48.38.48h2.18c.11,0,.24-.34.24-.47"/>
  </g>
</svg>