<?xml version="1.0" encoding="UTF-8"?>
<svg xmlns="http://www.w3.org/2000/svg" viewBox="0 0 512 521.08">
  <defs>
    <style>
      .cls-1 {
        font-family: ArialRoundedMTBold, 'Arial Rounded MT Bold';
        font-size: 298.97px;
        letter-spacing: .05em;
        stroke: #000;
        stroke-miterlimit: 10;
        stroke-width: 27px;
      }
    </style>
  </defs>
  <g id="Layer_1" image-rendering="optimizeQuality" shape-rendering="geometricPrecision" text-rendering="geometricPrecision">
    <path d="M22.48,295.83h61.18c12.62,0,22.76,10.38,22.47,23l-3.23,140.68c-.28,12.21-10.26,20.96-22.47,20.96H22.48c-12.41,0-22.48-10.06-22.48-22.48v-139.68c0-12.41,10.06-22.48,22.48-22.48ZM123.5,465.56l3.05-130.79c.29-12.41,10.59-22.24,23-21.95l44.34,1.04c1.41.03,2.82.19,4.2.49,26.62,5.88,53.04,20.47,79.41,37.63,3.49,2.27,7.54,3.51,11.7,3.61l46.2,1.07c.61.01,1.22.04,1.82.11,23.59,2.57,35.11,26.99,11.49,42.38-19.1,13.33-43.85,11.98-69.18,9.11-17.49-1.27-18.8,22.25-.53,22.75,6.32.64,13.26-.68,19.28-.55,30.78.69,56.43-4.43,73.04-27.32.89-1.23,1.67-2.55,2.3-3.94l4.18-9.17c2.22-4.86,6.1-8.77,10.94-11.03l71.38-33.34c1.3-.61,2.65-1.09,4.04-1.44,38.01-9.65,63.44,29.61,36.96,57.29-1.06,1.11-2.25,2.11-3.51,2.98-57.8,39.88-116.87,72.51-177.08,98.67-.69.3-1.37.64-2.03,1.02-44.23,25.11-115.45,21.36-158.48-5.3,0,0-36.5-10-36.5-33.31,0,0,0,0,0,0Z"/>
    <text class="cls-1" transform="translate(162.11 271.81) scale(.98 1)"><tspan x="0" y="0">AI</tspan></text>
  </g>
</svg>